# xmcd
#
# Track frame offsets:
#	150
#	11727
#	16424
#	30997
#	49056
#	62743
#	65217
#	86209
#	89988
#	102926
#
# Disc length: 1537 seconds
#
# Revision: 0
# Processed by: cddbd v1.5.1PL0 Copyright (c) Steve Scherf et al.
# Submitted via: EasyCDDAExtractor 8.2.1.1
#
DISCID=8805ff0a
DTITLE=olivier andu - inedi
DYEAR=2005
DGENRE=blues
TTITLE0=haut bénin (partie 1)
TTITLE1=instrumental n° 2
TTITLE2=où est grace ?
TTITLE3=haut bénin (partie 2)
TTITLE4=petit bill ou le prince de la pampa
TTITLE5=instrumental n° 3
TTITLE6=haut bénin (partie 3)
TTITLE7=instrumental n° 4
TTITLE8=quelle vie !
TTITLE9=instrumental n° 5
EXTD=
EXTT0=
EXTT1=
EXTT2=
EXTT3=
EXTT4=
EXTT5=
EXTT6=
EXTT7=
EXTT8=
EXTT9=
PLAYORDER=
